<?xml version="1.0" encoding="utf-8"?>
<!-- Generator: Adobe Illustrator 19.2.1, SVG Export Plug-In . SVG Version: 6.00 Build 0)  -->
<svg version="1.1" id="layer" xmlns="http://www.w3.org/2000/svg" xmlns:xlink="http://www.w3.org/1999/xlink" x="0px" y="0px"
	 viewBox="0 0 652 652" style="enable-background:new 0 0 652 652;" xml:space="preserve">
<style type="text/css">
	.st0{fill:#55565A;}
</style>
<path class="st0" d="M545.9,363.7c0,0,0-16.7,0-23.4c0-14.5-7.2-18.6-27.9-18.6c-0.2,0-40.8,0-40.8,0v42H503v-28.4c0,0,5.1,0,6.9,0
	c7.7,0,10.3,4.5,10.3,9.3c0,2.5,0,19.1,0,19.1H545.9L545.9,363.7z M472.3,335.6c0-0.5,0-1.1,0-1.7c0-6.9-4-12.2-21.9-12.2
	c-4.8,0-20.8,0-26.4,0c-16.7,0-23.6,5.7-23.6,18.1c0,2.4,0,5.1,0,7.4c0,10.5,6.9,16.5,21.7,16.5h47.1v-12.3h-38
	c-3.7,0-5.1-1.1-5.1-4V347c3,0,22.4,0,29.5,0C466,347,472.3,343.5,472.3,335.6L472.3,335.6z M447.9,336.6c0,1.9-0.8,2.9-3.8,2.9H426
	V338c0-2.4,1-4,3.9-4c2.9,0,14.1,0,14.1,0C446.3,333.9,447.9,334.8,447.9,336.6L447.9,336.6z M381.5,334.4h16.1v-12.7
	c0,0-20.1,0-33.1,0c-5.3,0-8.6,2.8-8.6,7.4c0,2.2,0,34.6,0,34.6h25.6V334.4L381.5,334.4z M350.3,347.4c0-2.4,0-6.9,0-9.1
	c0-10.5-6.9-16.5-21.7-16.5h-46v12.2h37c3.7,0,5.1,1.2,5.1,4v0.4c-3,0-22.4,0-29.5,0c-12.5,0-16.6,5.3-16.6,12.1c0,0.5,0,0.7,0,1.3
	c0,3.1,0.9,5.7,2.7,7.4c3.6,3.5,10.5,4.5,19.9,4.5c4.8,0,20,0,25.6,0C343.4,363.7,350.3,359.8,350.3,347.4L350.3,347.4z
	 M324.6,347.4c0,2.4-1,4-3.9,4c-2.9,0-13.9,0-13.9,0c-2.4,0-3.8-0.7-3.8-2.6c0-1.9,0.9-3.1,3.8-3.1h17.8V347.4L324.6,347.4z
	 M274.7,363.7V351l-19.8,0v-36h-25.7v48.7H274.7 M182,363.7c6.4,0,41.5,0,41.5,0V351c0,0-31,0-34,0c-3.3,0-6.6-1.8-6.6-8.1v-0.9
	c0-5.5,2.8-7.7,6.4-7.7c1.6,0,25.5,0,34.2,0v-12.7c-12.2,0-42.2,0-42.3,0c-17.2,0-24.2,7.5-24.2,19.1v3.9
	C156.9,358.3,164.4,363.7,182,363.7L182,363.7z M125.9,363.7h25.8V315c0,0-7.4,0-15,0c-6.2,0-10.6,2.6-14.8,6.3
	c-4.7,4.1-21.7,18.9-21.7,18.9V315c0,0-6.9,0-15.2,0c-8.6,0-12.9,2.9-17.7,6.7c-3.3,2.6-53.9,42-53.9,42H44l30.3-24.9v24.9h24.5
	l27.1-24.7L125.9,363.7L125.9,363.7z"/>
<path class="st0" d="M593.7,277.9c-13.2,0-31.9,4-52.1,11.3c-16.8,6.2-33.5,14-51.5,25.4c10.5-4.3,31.4-9.2,48.5-9.2
	c23.2,0,39.7,8.9,15.3,40C625.8,298.4,623.8,277.9,593.7,277.9"/>
</svg>
